<?xml version="1.0" standalone="no"?>
<!DOCTYPE svg PUBLIC "-//W3C//DTD SVG 20010904//EN"
 "http://www.w3.org/TR/2001/REC-SVG-20010904/DTD/svg10.dtd">
<svg version="1.0" xmlns="http://www.w3.org/2000/svg"
 width="1712.000000pt" height="1712.000000pt" viewBox="0 0 1712.000000 1712.000000"
 preserveAspectRatio="xMidYMid meet">
<metadata>
Created by potrace 1.14, written by Peter Selinger 2001-2017
</metadata>
<g transform="translate(0.000000,1712.000000) scale(0.100000,-0.100000)"
fill="#000000" stroke="none">
<path d="M15310 11791 c-108 -33 -177 -114 -196 -228 -7 -40 -7 -211 0 -253 2
-14 7 -43 11 -65 3 -22 17 -70 31 -107 14 -37 24 -70 22 -74 -2 -3 -349 -7
-773 -8 l-770 -1 0 -597 0 -598 33 0 33 0 -54 -77 c-86 -123 -114 -164 -159
-230 -24 -34 -45 -60 -48 -58 -3 2 -4 47 -3 102 4 124 4 106 0 191 l-2 72 70
-1 c38 0 79 0 91 0 l21 1 -1 598 -1 597 -505 3 c-278 1 -671 2 -875 1 -551 -1
-1685 0 -2145 2 l-405 2 -15 -41 c-16 -46 -23 -47 -110 -10 -25 11 -52 21 -60
23 -8 3 -40 11 -70 19 -128 36 -308 38 -446 6 -61 -15 -136 -41 -148 -52 -6
-4 -18 -8 -28 -8 -10 0 -18 -4 -18 -9 0 -5 -15 -15 -32 -22 -18 -7 -37 -17
-43 -21 -5 -4 -37 -29 -70 -55 -116 -92 -203 -198 -262 -321 -38 -81 -75 -182
-66 -182 3 0 0 -7 -7 -15 -7 -8 -10 -15 -7 -15 3 0 1 -17 -4 -37 -19 -82 -23
-160 -23 -475 l-1 -326 -27 16 c-16 9 -28 19 -28 23 0 7 -90 76 -125 95 -44
23 -70 39 -75 44 -21 23 -356 150 -394 150 -9 0 -16 4 -16 8 0 4 39 9 87 11
48 1 90 6 93 11 4 6 5 1075 1 1155 -1 20 -7 20 -993 18 -1005 -1 -1121 -4
-1193 -23 -22 -6 -51 -13 -65 -16 -28 -6 -144 -50 -175 -67 -11 -6 -23 -10
-27 -9 -5 1 -8 -2 -8 -8 0 -5 -5 -10 -12 -10 -7 0 -39 -19 -71 -41 -201 -141
-316 -347 -342 -614 -1 -16 -4 -32 -5 -35 -1 -3 -2 -8 -1 -12 0 -5 -4 -41 -10
-80 -6 -40 -12 -91 -14 -113 -2 -22 -6 -58 -9 -80 -3 -22 -11 -76 -17 -120 -5
-44 -12 -91 -14 -105 -7 -50 -16 -126 -20 -170 -3 -25 -7 -58 -9 -75 -3 -16
-8 -52 -11 -80 -8 -60 -11 -87 -19 -140 -4 -22 -9 -60 -11 -85 -2 -25 -7 -60
-9 -78 -5 -29 -15 -105 -31 -237 -4 -27 -8 -63 -11 -80 -2 -16 -6 -52 -9 -80
-14 -111 -26 -188 -31 -197 -6 -10 -143 -3 -189 10 -31 9 -33 15 -22 77 3 17
9 50 12 75 3 25 8 56 10 70 2 14 9 61 15 105 7 44 14 89 16 100 2 11 6 40 9
65 3 25 8 56 10 70 12 71 27 170 31 205 11 85 24 180 30 210 2 11 7 40 10 65
3 25 8 59 10 75 6 34 23 166 24 178 0 4 3 6 8 5 6 -1 54 6 117 17 11 2 30 4
42 4 29 1 36 28 48 171 3 36 7 76 10 89 2 14 7 47 10 75 3 28 8 58 11 67 2 9
6 36 9 60 2 24 6 60 10 79 3 20 7 54 10 75 2 22 4 40 5 40 2 0 8 45 11 85 1
19 5 39 8 45 3 5 6 28 7 50 2 22 5 54 9 70 4 17 8 46 10 65 2 19 7 53 10 75
12 91 18 141 19 159 1 19 -15 19 -652 19 -359 0 -655 -3 -658 -6 -7 -7 -12
-49 -19 -155 -3 -48 -7 -98 -10 -110 -2 -13 -7 -69 -10 -125 -6 -98 -14 -142
-15 -81 -2 74 -8 163 -15 194 -10 53 -28 100 -37 100 -4 0 -8 6 -8 14 0 12
-69 88 -101 111 -38 27 -125 59 -138 50 -6 -3 -11 -3 -11 2 0 4 -213 7 -472 5
-260 -1 -1007 -3 -1661 -4 l-1187 -2 2 -940 3 -941 335 -1 c184 0 340 1 346 3
7 3 11 50 11 141 0 173 14 278 42 321 9 15 70 25 72 13 1 -4 3 -494 3 -1090
l2 -1082 -86 -26 c-47 -15 -88 -30 -93 -33 -8 -8 -13 -1529 -4 -1537 3 -3 16
0 29 7 12 7 28 14 33 15 6 1 69 30 140 64 120 57 172 81 185 85 3 0 48 22 101
47 54 25 113 52 133 59 20 7 36 17 36 21 0 4 6 8 13 8 6 0 54 20 105 45 51 25
95 45 97 45 3 0 98 43 245 113 47 22 109 50 138 63 28 13 52 29 53 36 0 7 3
290 5 630 l4 616 -32 -4 c-18 -3 -53 -9 -78 -15 -87 -19 -90 -19 -91 -1 -5
105 -3 1934 3 1938 9 6 52 -87 63 -136 12 -51 13 -71 14 -215 l1 -130 352 0
352 0 -1 318 c-1 233 2 317 10 318 37 4 204 5 213 2 8 -3 13 -42 14 -111 1
-59 3 -152 5 -207 1 -55 6 -221 10 -370 12 -471 13 -480 46 -585 22 -71 75
-170 90 -170 5 0 9 -5 9 -11 0 -10 58 -70 97 -99 38 -29 97 -61 147 -80 16 -6
27 -12 25 -14 -16 -15 -226 -23 -357 -14 -49 4 -72 2 -73 -6 0 -6 -2 -29 -4
-51 -1 -22 -5 -80 -9 -130 -4 -49 -9 -115 -11 -145 -3 -30 -7 -89 -10 -130 -3
-41 -8 -95 -11 -120 -4 -41 -7 -80 -19 -260 -2 -30 -4 -55 -5 -55 0 0 -3 -36
-6 -80 -2 -44 -7 -102 -9 -130 -19 -203 -18 -227 1 -222 11 3 51 14 89 26 72
21 158 43 162 43 2 -1 17 4 35 9 57 18 492 135 530 144 12 2 42 11 67 19 25 9
59 18 76 20 16 3 41 10 55 16 21 8 78 23 173 45 9 2 22 7 27 10 6 4 23 8 38
11 48 8 126 36 167 60 35 20 91 36 201 59 16 3 34 7 39 9 11 3 68 15 100 21
11 2 20 4 20 5 0 1 7 3 15 5 81 16 235 49 321 69 59 13 120 27 135 30 16 2 52
10 79 16 28 6 57 12 65 14 173 32 282 100 340 214 12 23 25 42 29 42 3 0 5
-51 3 -114 l-3 -114 33 3 c18 2 44 7 58 10 14 3 54 10 90 15 36 6 76 13 90 15
97 18 139 25 170 30 19 3 42 8 50 10 8 2 35 7 60 10 24 4 47 8 50 10 3 2 30 6
60 10 30 4 58 8 61 10 3 2 27 7 55 10 64 9 82 12 124 20 19 4 44 9 55 11 36 6
100 16 115 18 26 4 104 18 125 23 11 2 49 6 85 8 36 3 90 7 120 10 95 9 163
15 235 20 39 2 70 4 70 5 0 0 38 3 85 5 47 2 123 7 170 9 113 7 358 16 555 21
88 2 162 5 165 5 3 1 25 1 50 1 25 -1 52 -1 60 -1 8 0 31 0 51 0 30 -1 44 8
87 50 28 27 48 50 44 50 -4 0 -2 4 4 8 7 4 30 39 51 79 l39 72 18 -27 c39 -57
186 -169 287 -219 46 -23 180 -72 214 -79 11 -2 30 -6 43 -9 12 -3 32 -7 45
-10 119 -26 426 -24 550 4 20 5 37 7 37 4 0 -3 6 -1 13 4 6 6 19 11 27 11 26
1 39 6 150 50 36 14 72 32 81 39 8 7 19 13 23 13 9 0 90 53 94 63 2 4 7 7 12
7 5 0 35 24 66 54 32 30 61 53 64 51 3 -2 5 -67 4 -144 0 -94 3 -141 10 -142
6 0 34 -2 61 -3 117 -8 242 -18 265 -22 14 -2 52 -7 85 -9 33 -3 76 -7 95 -10
19 -2 60 -7 90 -10 30 -4 66 -8 80 -11 14 -2 49 -6 78 -10 29 -3 63 -8 75 -10
12 -3 36 -7 52 -9 17 -2 50 -7 75 -11 25 -3 56 -7 70 -9 43 -6 433 -70 476
-79 12 -2 37 -7 55 -10 50 -8 88 -15 144 -26 28 -5 66 -12 85 -15 19 -3 67
-12 105 -20 39 -8 81 -16 95 -19 22 -3 317 -71 360 -81 49 -13 147 -37 160
-40 8 -2 49 -11 90 -20 41 -9 83 -20 92 -25 10 -6 26 -10 37 -10 10 0 63 -11
117 -25 55 -14 110 -28 124 -30 14 -2 70 -16 125 -30 55 -14 109 -27 120 -29
59 -13 197 -50 245 -66 30 -10 150 -49 265 -85 116 -37 287 -92 380 -122 94
-30 186 -60 205 -66 19 -6 43 -20 52 -32 9 -11 20 -20 25 -21 9 -1 38 -11 68
-25 11 -5 47 -18 80 -30 33 -12 65 -25 71 -30 6 -5 19 -10 30 -12 10 -2 30 -9
44 -14 33 -14 127 -51 290 -113 74 -29 144 -56 155 -60 55 -24 334 -130 338
-128 1 0 20 -8 42 -19 22 -12 44 -21 48 -21 17 0 67 -25 67 -33 0 -12 45 -32
400 -179 162 -67 313 -130 335 -140 22 -9 114 -48 205 -85 91 -37 188 -78 215
-90 28 -12 60 -25 72 -29 l22 -7 0 1053 0 1053 -52 2 c-29 1 -69 3 -89 3 l-38
1 -2 440 c-2 242 -1 446 2 454 3 8 3 62 0 120 -3 58 -3 112 0 120 3 8 3 134 0
280 -3 146 -3 272 0 280 3 8 3 62 0 120 -3 59 -2 112 1 117 4 6 4 22 0 37 -4
14 -5 35 -2 47 5 17 14 21 61 21 30 1 70 2 88 2 l32 1 0 599 0 599 -242 0
c-303 0 -285 -1 -270 14 7 7 12 20 12 30 0 10 5 18 10 18 5 0 9 3 9 8 -1 4 0
10 1 15 1 4 3 10 4 15 2 4 7 25 13 47 25 90 35 279 20 365 -17 98 -87 184
-173 213 -72 24 -325 20 -372 -6 -80 -44 -114 -90 -135 -184 l-13 -57 -83 -1
c-90 0 -107 5 -98 29 3 8 2 18 -4 21 -5 4 -9 12 -7 18 3 20 -32 90 -60 121
-15 16 -49 39 -77 52 -45 22 -63 24 -185 23 -74 0 -146 -4 -160 -8z m615
-1933 l35 -3 -68 -100 c-37 -55 -78 -116 -92 -135 -14 -19 -30 -42 -35 -51
-28 -45 -66 -99 -69 -99 -2 0 -3 87 -2 193 l1 192 83 1 c45 0 85 3 88 7 3 3 6
201 6 439 0 238 3 438 7 443 3 6 7 -191 9 -437 l2 -447 35 -3z m-6528 102 c29
-13 52 -34 72 -65 25 -39 29 -54 25 -98 -7 -98 -12 -124 -52 -288 l-29 -116
396 -1 c218 0 403 1 412 4 9 2 16 10 17 17 0 6 3 23 6 37 2 14 7 48 11 75 3
28 8 57 10 65 2 8 6 35 9 60 3 25 8 56 10 70 3 14 12 67 20 119 9 52 20 97 25
100 5 3 34 4 63 3 l55 -4 0 -624 c0 -343 -4 -624 -9 -624 -4 0 -9 16 -9 35 -3
86 -11 133 -35 221 -8 28 -16 60 -19 71 -2 12 -8 29 -13 39 -5 11 -16 33 -23
49 -8 17 -29 56 -49 88 l-35 57 -412 0 -411 0 21 -42 c12 -24 24 -45 27 -48 3
-3 12 -18 20 -35 8 -16 35 -66 60 -110 62 -109 70 -130 69 -173 -1 -107 -50
-146 -183 -145 -123 1 -203 24 -254 73 -35 33 -62 106 -65 171 -1 33 -4 59 -7
59 -3 0 -4 24 -2 52 4 63 4 74 0 161 -2 37 0 67 4 67 4 0 5 7 1 15 -8 22 -10
225 -2 225 4 0 4 15 0 33 -4 17 -4 44 0 59 4 15 4 29 1 32 -5 6 -5 102 2 192
4 65 48 118 106 129 13 2 25 7 28 10 12 12 100 3 139 -15z m1984 -42 c24 -30
24 -30 -13 -70 -66 -68 -66 -68 -67 17 l-1 75 31 0 c20 0 38 -8 50 -22z m1005
-43 c-6 -16 4 -17 121 -16 l62 1 -1 -740 0 -740 -22 4 c-11 3 -24 5 -28 5 -4
1 -5 22 -4 49 5 78 4 78 -129 98 -50 7 -63 18 -85 69 -9 22 -26 60 -37 85 -12
25 -42 95 -68 155 -26 61 -53 124 -60 140 -32 72 -77 185 -77 192 0 4 -6 19
-13 33 -16 31 -69 161 -71 176 -1 5 -11 29 -22 52 l-20 41 37 35 c20 20 47 45
61 56 42 36 211 193 250 233 32 33 97 85 109 87 2 0 1 -7 -3 -15z m-5687 -584
l1 -567 -93 1 -92 0 -3 568 -2 568 94 -2 95 -1 0 -567z m8124 -281 l0 -845
-59 0 c-32 0 -64 1 -69 2 -7 2 -10 288 -9 841 1 460 2 840 3 844 0 3 31 6 67
5 l67 -2 0 -845z m-11077 745 c-3 -27 -8 -63 -11 -80 -3 -16 -8 -46 -11 -65
-12 -71 -17 -106 -18 -137 0 -18 -4 -33 -7 -33 -3 0 -6 -6 -6 -12 -1 -34 -15
-143 -19 -147 -12 -13 -17 20 -20 131 -3 167 -6 371 -5 383 1 6 24 10 52 10
l51 0 -6 -50z m1904 -825 c-1 -205 -3 -270 -13 -271 -6 0 -22 -2 -35 -3 -22
-3 -23 -1 -17 58 4 34 8 77 10 96 2 19 6 49 9 65 5 31 10 77 22 179 3 33 8 67
9 75 2 9 4 28 4 44 1 15 3 27 6 27 3 0 5 -121 5 -270z m2013 41 c17 -25 67
-127 67 -136 0 -3 -38 -5 -84 -5 -58 0 -85 4 -88 13 -3 10 -3 173 1 231 1 14
11 7 44 -29 23 -26 50 -59 60 -74z m3696 -196 c15 -38 27 -76 26 -84 0 -20
-74 -21 -80 -1 -2 8 -4 65 -4 125 1 109 1 110 16 70 8 -22 27 -71 42 -110z
m2456 -290 l0 -266 -57 6 c-31 3 -67 8 -80 11 -13 3 -39 8 -58 11 -46 7 -97
31 -104 49 -6 16 13 64 26 64 4 0 8 5 8 10 0 6 19 37 43 69 23 33 49 69 57 81
8 13 30 43 48 69 18 25 51 72 73 104 22 31 41 57 42 57 1 0 2 -119 2 -265z
m2231 -562 c-22 -18 -34 -21 -88 -17 -35 2 -72 7 -83 11 -11 3 -30 7 -42 9
-39 4 -107 15 -124 20 -13 3 -16 23 -17 107 l-1 103 43 65 c23 36 46 72 49 80
9 19 223 351 236 366 6 7 11 15 11 18 0 3 8 18 18 32 16 26 17 12 20 -372 l3
-400 -25 -22z"/>
<path d="M8367 7434 c-1 -1 -99 -5 -217 -8 -268 -8 -415 -14 -505 -21 -38 -3
-104 -8 -145 -11 -41 -2 -100 -6 -130 -9 -30 -2 -93 -7 -139 -11 -47 -3 -95
-10 -108 -15 -18 -6 -22 -6 -17 3 4 6 3 9 -2 6 -5 -3 -43 -9 -84 -13 -41 -4
-84 -9 -95 -11 -11 -2 -49 -7 -85 -10 -36 -3 -76 -7 -90 -10 -14 -3 -43 -7
-65 -9 -102 -10 -152 -15 -174 -20 -14 -2 -45 -7 -70 -10 -25 -3 -57 -7 -71
-10 -13 -3 -42 -7 -65 -10 -22 -3 -58 -8 -80 -11 -22 -3 -42 -7 -45 -9 -3 -1
-32 -6 -65 -10 -32 -3 -62 -8 -65 -10 -3 -2 -33 -7 -65 -10 -33 -4 -63 -9 -66
-11 -3 -2 -21 -6 -40 -9 -19 -3 -70 -12 -114 -20 -44 -8 -91 -16 -105 -19 -14
-2 -36 -7 -50 -10 -14 -3 -37 -8 -52 -11 -44 -8 -78 -15 -158 -31 -77 -16 -98
-21 -138 -28 -12 -3 -25 -7 -30 -9 -4 -3 -23 -8 -42 -11 -20 -3 -65 -12 -100
-21 -36 -9 -76 -18 -90 -21 -14 -2 -79 -18 -145 -35 -66 -17 -127 -33 -135
-34 -45 -10 -213 -57 -235 -65 -14 -5 -25 -7 -25 -4 0 4 -7 1 -15 -6 -8 -7
-15 -10 -15 -7 0 4 -18 0 -40 -8 -22 -8 -40 -12 -40 -8 0 3 -6 1 -12 -5 -13
-9 -75 -26 -80 -21 -2 1 -13 -3 -26 -10 -13 -7 -31 -14 -41 -16 -32 -6 -246
-75 -259 -83 -9 -6 8 -22 55 -52 315 -202 621 -483 722 -664 31 -54 98 -219
116 -282 35 -127 44 -160 49 -184 25 -118 37 -178 39 -192 1 -11 7 -16 17 -13
8 2 35 9 60 15 25 6 52 12 60 14 159 42 421 108 440 112 14 2 36 9 50 14 14 5
36 11 50 12 14 2 31 7 38 11 6 5 12 6 12 3 0 -2 15 0 33 5 33 11 222 56 267
65 14 3 33 7 42 10 17 5 47 12 88 20 14 3 52 11 85 19 33 8 75 17 94 20 19 3
38 8 41 10 4 3 25 7 46 11 22 3 113 21 203 39 91 19 168 32 173 29 4 -3 8 -1
8 3 0 5 8 9 18 9 17 1 79 10 117 18 11 2 40 7 65 11 25 4 54 9 65 11 52 9 228
34 271 39 27 3 67 8 89 12 22 4 49 7 60 8 23 3 120 13 180 20 22 3 67 7 100
10 33 3 83 7 110 10 49 5 153 12 310 21 44 2 173 6 287 8 114 2 212 7 219 12
7 4 10 3 7 -2 -4 -5 56 -10 140 -10 147 -2 330 -9 452 -19 36 -3 97 -7 135
-10 39 -3 88 -7 110 -9 22 -3 72 -8 110 -11 39 -4 86 -9 105 -11 19 -3 53 -7
75 -9 22 -2 56 -6 75 -9 19 -3 58 -8 85 -11 28 -4 57 -8 65 -10 8 -2 35 -7 60
-10 67 -8 93 -12 230 -36 69 -12 134 -23 145 -24 38 -6 90 -16 105 -20 8 -2
31 -6 50 -9 19 -2 53 -9 75 -14 22 -6 54 -13 70 -16 17 -3 41 -7 55 -10 14 -3
48 -10 75 -16 28 -6 61 -13 75 -16 14 -3 36 -7 50 -10 13 -3 63 -14 110 -25
96 -23 114 -27 150 -34 14 -2 187 -45 385 -95 198 -50 367 -92 375 -94 8 -2
44 -12 80 -21 36 -9 72 -19 80 -20 8 -2 30 -9 49 -14 19 -6 36 -9 38 -7 2 1 5
27 8 57 14 145 16 166 20 194 13 97 51 245 85 334 49 127 137 256 255 376 35
35 211 175 221 175 3 0 29 15 57 34 70 45 286 166 298 166 5 0 9 4 9 8 0 5 11
15 25 22 27 14 33 26 13 27 -7 0 -47 12 -88 26 -41 14 -124 39 -185 57 -60 18
-117 35 -125 38 -18 6 -11 5 -80 21 -30 8 -62 17 -70 21 -8 5 -28 11 -45 14
-16 3 -82 19 -145 36 -63 18 -178 47 -255 66 -137 33 -164 40 -215 50 -14 3
-41 9 -60 14 -19 5 -46 11 -60 14 -14 3 -79 17 -145 30 -66 14 -131 27 -145
30 -14 2 -36 7 -50 10 -14 3 -38 8 -55 11 -16 3 -79 15 -140 26 -109 20 -322
56 -380 64 -16 2 -59 9 -95 14 -36 6 -81 13 -100 16 -19 2 -46 7 -60 9 -14 2
-51 7 -84 11 -32 4 -70 9 -85 12 -25 4 -42 6 -156 17 -27 3 -68 7 -90 10 -22
3 -62 8 -90 11 -27 3 -68 8 -90 11 -22 2 -74 6 -115 9 -41 3 -88 7 -105 10
-16 2 -75 7 -130 10 -55 3 -113 8 -130 10 -26 4 -134 10 -330 20 -197 11 -941
25 -948 19z"/>
</g>
</svg>
