
<svg width="214" height="81" viewBox="0 0 214 81" fill="none" xmlns="http://www.w3.org/2000/svg">
  <path
    d="M117.888 31.8622L119.824 35.4134C120.195 35.9332 120.372 36.4139 120.372 36.9096C120.372 38.2676 119.901 38.52 119.066 38.7514L117.852 38.8325C114.499 38.6071 114.412 37.2611 114.113 36.2877C114.056 35.9782 113.969 34.9657 113.987 34.1966V30.7595L113.999 24.7536C113.999 24.1798 114.167 23.7291 114.517 23.3746C114.91 22.984 115.836 22.7406 116.414 22.7406C118.301 22.7587 118.679 24.4141 118.679 24.4141C118.688 25.2433 118.694 25.7691 118.397 27.1181C118.307 27.5297 118.065 28.5633 118.065 28.5663L117.636 30.0955H127.926L131.17 9.22963H121.007L120.68 10.2602C120.243 10.158 119.74 9.96872 119.437 9.82451L119.359 9.78845L119.278 9.7554C119.048 9.65926 118.775 9.56913 118.457 9.47599C117.397 9.13348 116.183 8.95322 114.949 8.95322C113.31 8.95322 111.716 9.27469 110.463 9.85756C109.468 10.2872 108.525 10.9001 107.494 11.7804C104.911 14.0007 103.431 17.5099 103.431 21.4067L103.464 39.2261C103.464 39.3913 103.5 40.8845 103.88 42.3567L103.91 42.4618C105.19 46.7342 108.579 51.8297 117.433 51.8297C121.912 51.8297 125.46 50.4387 127.982 47.6836C130.071 45.3852 130.376 43.0027 130.382 40.9656C130.589 37.15 129.84 34.0975 128.156 31.8862L117.888 31.8622Z"
    fill="white"
  />
  <path
    d="M7.85925 54.8614L10.2023 54.1163V26.917L9.68099 26.923C9.36938 26.923 9.34241 26.9681 9.24053 27.1363C9.08173 27.3947 8.71619 28.2179 8.71619 30.2609V32.9499H0V9.41306H31.6557V32.9499H22.8736V30.2609C22.8736 29.1974 22.6968 28.302 22.3463 27.599L22.3163 27.5389C22.0466 26.9651 21.8848 26.923 21.792 26.92L21.8369 51.3372L24.3778 50.8715L24.2849 66.6028L7.85625 74.183V54.8614H7.85925Z"
    fill="white"
  />
  <path
    d="M25.5557 30.2607C25.5557 28.7675 25.286 27.4846 24.7437 26.4C24.0695 24.9549 23.0778 24.2338 21.7714 24.2338C20.9594 24.2338 20.0845 24.1767 19.4493 24.9308C19.2994 25.1081 19.1077 25.6309 19.1077 26.4901L19.1586 54.5697L21.6755 54.107L21.6126 64.878L10.5443 69.9856V56.8321L12.8844 56.087V26.6223C12.8844 25.6279 12.6477 25.3514 12.2821 24.9368C11.5541 24.1106 10.6701 24.2308 9.68138 24.2308C7.2484 24.2308 6.0349 26.2408 6.0349 30.2607H2.68506V12.1048H28.9714V30.2607H25.5557Z"
    fill="#4A1900"
  />
  <path
    d="M11.7938 57.7484L14.1369 57.0063V26.6223C14.1369 25.2583 13.7414 24.6964 13.22 24.1076C12.2163 22.9719 10.9399 22.9719 10.3286 22.9719L9.68144 22.9779C7.61101 22.9779 5.17203 24.0625 4.82447 29.0078H3.93457V14.3311L4.96229 13.3607H27.7221V29.0078H26.7453C26.6224 27.8361 26.3288 26.7725 25.8644 25.8411C24.7617 23.4826 23.0299 22.9809 21.7714 22.9809H21.4508C20.7557 22.9809 19.4583 22.9809 18.4965 24.1226C18.086 24.6063 17.8613 25.4476 17.8613 26.4901L17.9122 56.0749L20.4201 55.6122L20.3722 64.0728L11.7968 68.0296V57.7514L11.7938 57.7484Z"
    fill="#4A1C00"
  />
  <path
    d="M78.0979 37.898C78.1189 37.9401 78.1458 37.9701 78.1668 38.0092C78.1668 37.9641 78.1548 37.919 78.1548 37.871V25.1231L78.0979 26.1686V37.898Z"
    fill="#5E7BBA"
  />
  <path
    d="M70.6048 39.2983L70.6257 31.9013C70.3441 34.1787 70.0235 36.7775 69.7149 39.2983H70.6048ZM53.2533 40.476L56.2136 41.1911C56.6571 41.2992 57.2324 41.3623 57.7837 41.3623C57.9605 41.3623 58.1193 41.3563 58.2631 41.3443C58.35 41.3353 58.4129 41.3263 58.4578 41.3173C58.4938 41.2121 58.5507 40.9898 58.5807 40.5812L58.5867 40.5031L61.3972 18.6186C62.2212 11.405 68.9478 9.39799 72.3905 9.34991H83.1592V24.1829L81.3794 24.243V38.463H84.091V51.3551L68.1238 54.1252V51.0216C67.3598 53.0857 65.6639 53.984 64.5972 54.2033L51.4136 57.0846L53.2563 40.482L53.2533 40.476Z"
    fill="white"
  />
  <path
    d="M96.6057 37.1079C96.36 36.1976 95.7758 35.0349 94.4544 33.8421V37.1079H96.6057ZM83.7367 24.2579L81.6932 24.2459V9.34381H97.4177V24.0927L94.8349 24.1918C94.805 24.1918 94.775 24.1918 94.745 24.1978C98.4754 25.1743 102.011 26.6404 104.3 29.5728C106.913 32.9137 107.62 37.835 107.674 39.4484C107.722 40.8785 107.728 42.4348 107.275 44.3997C106.395 48.2274 105.262 49.3481 104.887 49.7146L104.117 50.4777L103.03 50.4897C94.1817 50.5709 86.724 51.2078 86.6491 51.2138L83.7337 51.4662V24.2579H83.7367Z"
    fill="white"
  />
  <path
    d="M141.266 25.1985C141.575 24.9551 142.201 24.3272 142.566 23.9276L142.102 23.3778V23.2366H141.266V25.1955V25.1985ZM142.425 39.049C142.069 38.0605 141.67 36.9639 141.266 35.8583V38.9859L142.425 39.049ZM128.037 51.3733V38.4481L130.59 38.8627V23.2396H128.418V9.27791H143.441V9.28692L157.458 9.22083V22.5215L155.879 23.2366C155.435 23.4379 154.213 24.2731 153.859 24.5946C153.371 25.1564 152.31 26.1239 150.258 27.9716C149.922 28.272 149.539 28.6176 149.179 28.942C151.393 34.6956 153.065 38.4211 153.829 40.1216L153.949 40.371C154 40.4731 154.12 40.6744 154.207 40.6894L156.427 41.083V55.6336C156.427 55.6336 139.837 52.0162 128.04 51.3733"
    fill="white"
  />
  <path
    d="M172.694 44.7992V38.0392L168.97 43.3781C168.97 43.3781 168.469 44.1412 170.213 44.4147C171.96 44.6851 172.694 44.7992 172.694 44.7992ZM170.333 59.0463L170.051 58.9742L154.459 55.2187V42.3386L157.101 42.7472V24.2608H154.851V9.27762H170.222V24.2638H167.969V28.9778L171.259 24.2638H170.444V9.27762H185.815V24.2638H183.562V45.4091L185.806 45.5443V64.0187L170.333 59.0463Z"
    fill="white"
  />
  <path
    d="M200.876 47.8698V38.1143L196.151 45.5443V48.1612L198.395 48.5067V48.5338L199.699 48.7381C199.699 48.7381 200.876 48.8102 200.876 47.8668M198.395 69.6701V69.4117L182.641 63.3096V46.1152L185.281 46.5388V24.2638H183.033V9.27762H198.404V24.2638H196.154V29.2362L199.537 24.2638H198.629V9.27762H214V24.2638H211.747V49.7175L213.991 49.8497V76.1747L198.395 69.6731V69.6701Z"
    fill="white"
  />
  <path
    d="M45.729 31.5228V31.5498C45.7889 31.5468 45.8489 31.5438 45.9118 31.5438L46.9305 24.964H45.5642C45.6361 28.1458 45.705 30.9068 45.723 31.4687L45.729 31.5228ZM34.6158 45.6527L37.2735 45.842C37.7559 45.842 38.9454 45.7128 40.1709 45.5595C36.902 44.532 34.9604 41.837 34.9334 38.0304L34.5858 25.0962V24.937H32.7671C32.4884 24.934 32.2338 24.937 32.021 24.943L29.2405 25.0572L29.1805 9.34692H41.2046C42.8346 9.39198 45.2826 10.6839 45.3275 14.0699C45.3335 14.5146 45.3485 15.3438 45.3695 16.4074L45.9777 9.34692L62.4962 9.3349L60.7733 21.6742L60.4677 24.5404L58.0198 24.943C57.2048 30.8618 55.7426 40.5331 54.7658 47.0047C54.2894 50.1503 53.8789 52.8664 53.8369 53.2269C53.4714 56.2644 51.356 57.5353 50.0556 57.8387L33.3394 62.3785L34.6218 45.6527H34.6158Z"
    fill="white"
  />
  <path
    d="M199.339 3.22381L199.36 3.21179L202.069 7.85667C201.943 7.93178 201.817 8.00089 201.68 8.06398L199.339 3.22381Z"
    fill="white"
  />
  <path
    d="M200.674 5.55814C200.641 5.57934 200.605 5.59752 200.568 5.61569C200.605 5.59752 200.641 5.57934 200.674 5.55814Z"
    fill="#5E7BBA"
  />
  <path
    d="M195.755 8.26222C194.794 7.99783 193.931 7.40896 193.268 6.56471L197.266 2.98941C197.373 3.09457 197.496 3.1817 197.637 3.24779L195.755 8.26522V8.26222Z"
    fill="white"
  />
  <path
    d="M196.463 5.66634C196.053 5.46504 195.69 5.20666 195.379 4.90021C195.696 5.3028 196.059 5.55518 196.463 5.66634Z"
    fill="#5E7BBA"
  />
  <path
    d="M197.946 13.1655C192.241 13.1655 188.924 10.158 188.835 4.91227V4.84317C188.814 3.47014 188.787 1.91083 190.039 0.814206C190.641 0.291432 191.441 0 192.298 0H194.563C195.399 0.0360534 196.167 0.396587 196.715 1.0125C197.254 1.6224 197.542 2.41558 197.518 3.27184C197.686 3.28987 197.91 3.30189 198.21 3.30189C198.21 3.30189 198.647 3.30189 198.701 3.30189C198.761 3.29888 199.187 3.30189 199.187 3.30189C199.489 3.30189 199.711 3.28987 199.879 3.27184C199.858 2.41558 200.14 1.6224 200.682 1.0125C201.233 0.396587 201.997 0.0360534 202.833 0.00300445H205.098C205.958 0.00300445 206.761 0.291432 207.361 0.814206C208.61 1.91083 208.583 3.45812 208.562 4.82514V4.91227C208.478 10.158 205.155 13.1685 199.453 13.1685H197.943L197.946 13.1655Z"
    fill="white"
  />
  <path
    d="M80.785 41.152C79.6764 41.152 78.7805 40.2206 78.7086 39.0489C78.7056 39.0008 78.6936 38.9497 78.6936 38.8987V23.3927C78.6936 22.263 79.3947 21.6141 80.4734 21.578V12.0389H72.4254C72.4254 12.0389 64.8358 12.144 64.0538 18.9611L61.2552 40.7674C61.1354 42.486 60.5301 43.847 58.4927 44.0243C57.7346 44.0903 56.584 44.0513 55.5803 43.8109L54.4896 53.6565L64.0448 51.5654C64.0448 51.5654 65.5549 51.286 65.8006 49.249C66.0493 47.212 68.722 25.1593 68.8568 24.5704C69.0396 22.8128 70.0373 22.0467 70.7594 22.0467H73.3332L73.2853 40.1305C73.1175 41.1881 72.2636 41.9932 71.2328 41.9932H70.8074V50.9285L81.4022 49.0898V41.155H80.785V41.152Z"
    fill="#4A1900"
  />
  <path
    d="M56.6812 45.253C57.0437 45.289 57.4152 45.3071 57.7838 45.3071C58.0834 45.3071 58.3621 45.2951 58.6048 45.274C60.2467 45.1298 62.2512 44.2555 62.5029 40.8935L65.2985 19.1233C65.9487 13.4479 72.1809 13.2977 72.4446 13.2917H79.2252V20.5744C78.1255 21.0281 77.4454 22.0556 77.4454 23.3926V38.8986C77.4454 38.9857 77.4544 39.0638 77.4634 39.1479C77.5622 40.7433 78.6948 42.0472 80.154 42.3417V48.0321L72.0551 49.4352V43.1349C73.3105 42.8014 74.2903 41.7228 74.518 40.3257L74.533 40.2265L74.5869 20.7908H70.7607C69.3884 20.7908 67.8723 22.0376 67.6146 24.4201C67.297 26.4722 64.5853 48.8643 64.5584 49.0957C64.4355 50.1142 63.8842 50.3125 63.7734 50.3425L55.9231 52.0551L56.6782 45.25L56.6812 45.253Z"
    fill="#4A1C00"
  />
  <path
    d="M99.2278 39.8H91.773V29.8673C93.1723 30.0656 94.3738 30.4712 95.3536 31.1021C100.339 34.8727 99.4884 39.3433 99.2278 39.8ZM102.191 31.2343C100.13 28.5994 96.5041 27.2804 91.773 26.2589V23.3356C91.773 21.617 94.7333 21.5059 94.7333 21.5059V12.0359H84.3782V21.575C86.3977 21.584 86.4216 23.0141 86.4216 23.3686V48.5369C86.4216 48.5369 93.9423 47.888 103.006 47.8038C103.788 47.0287 104.36 45.1058 104.663 43.8019C105.05 42.1194 105.032 40.8125 104.993 39.5416C104.942 38.0033 104.253 33.8782 102.191 31.2373"
    fill="#4A1900"
  />
  <path
    d="M90.524 41.0527H99.9533L100.313 40.4218C100.939 39.3191 101.466 34.1545 96.103 30.0985L96.0671 30.0714L96.0281 30.0444C94.9165 29.3293 93.5412 28.8516 91.9442 28.6233L90.521 28.422V41.0527H90.524ZM87.6745 23.3625C87.6715 21.9114 86.9105 20.8868 85.6281 20.4933V13.2856H93.4873V20.4001C91.8783 20.7546 90.524 21.7071 90.524 23.3325V27.2713L91.5128 27.4846C96.7083 28.6053 99.6087 29.9543 101.212 32.0063C103.015 34.3137 103.699 38.1053 103.747 39.5775C103.789 40.8424 103.795 42.0081 103.45 43.5134C103.096 45.0396 102.701 46.0281 102.395 46.5508C95.8783 46.632 90.1824 46.9955 87.6775 47.1788V23.3655L87.6745 23.3625Z"
    fill="#4A1C00"
  />
  <path
    d="M151.863 22.7948C152.208 22.3772 153.949 21.1574 154.773 20.7848V11.9277L144.81 11.9728V20.6286C145.239 20.6166 145.727 20.7698 146.209 21.1153C147.078 21.8334 146.623 23.2184 145.508 24.1528C144.477 25.0121 139.734 28.6625 138.581 29.5849V21.8514C138.581 20.6616 140.735 20.5505 140.756 20.5505V11.9728H131.099V20.5505C131.117 20.5505 133.274 20.6586 133.274 21.8514V40.0524C133.274 40.9327 132.328 41.6477 131.159 41.6477C131.009 41.6477 130.862 41.6357 130.722 41.6117V49.0537C130.722 49.0537 137.709 49.7657 140.753 50.2735V41.6537C140.732 41.6537 140.717 41.6507 140.699 41.6507C139.531 41.6507 138.584 40.9357 138.584 40.0554V33.8031L142.332 30.9399C142.332 30.9399 146.024 41.0679 146.302 41.8911C146.431 42.2366 145.616 42.2186 144.81 42.1224V50.7963L153.739 52.3376V43.3422C152.705 43.162 151.98 42.4619 151.534 41.5426C151.504 41.4825 151.474 41.4194 151.447 41.3623C151.432 41.3323 151.417 41.3022 151.405 41.2752C150.467 39.1901 148.528 34.8517 146.033 28.2148C146.725 27.4697 151.183 23.615 151.866 22.7978"
    fill="#4A1900"
  />
  <path
    d="M146.056 49.7356V43.4142C146.455 43.3721 146.982 43.2279 147.315 42.7412C147.578 42.3596 147.635 41.8879 147.465 41.4403C147.204 40.6561 143.653 30.9157 143.503 30.5011L142.922 28.9027L137.331 33.175V40.0492C137.331 41.287 138.221 42.3176 139.5 42.7202V48.8132C137.055 48.4737 133.7 48.1041 131.968 47.9239V42.8193C133.451 42.5189 134.521 41.4102 134.521 40.0492V21.8483C134.521 20.4452 133.37 19.7722 132.345 19.4838V13.2225H139.506V19.4928C139.429 19.5138 139.348 19.5378 139.27 19.5619C137.52 20.1357 137.331 21.3525 137.331 21.8513V32.1866L139.36 30.5642C139.812 30.2006 140.819 29.4165 141.939 28.5482C143.686 27.1902 145.667 25.6489 146.305 25.1111C147.315 24.2698 147.914 23.1402 147.911 22.0916C147.911 21.3225 147.587 20.6315 147.003 20.1477L146.928 20.0907C146.647 19.8924 146.35 19.7301 146.053 19.6129V13.2225L153.517 13.1864V20.0366C152.555 20.6044 151.306 21.5027 150.901 21.9895C150.575 22.3861 148.87 23.9153 147.626 25.036C146.278 26.2498 145.436 27.0099 145.112 27.3614L144.585 27.9293L144.858 28.6563C147.45 35.5365 149.418 39.917 150.26 41.7888L150.404 42.0802C150.895 43.0807 151.614 43.8198 152.489 44.2374V50.8442L146.056 49.7356Z"
    fill="#4A1C00"
  />
  <path
    d="M180.876 33.7971V22.8729C180.876 21.6831 183.108 21.572 183.129 21.572V11.9698H173.125V21.572C173.146 21.572 175.375 21.6831 175.375 22.8729V23.0502L165.283 37.5166V22.8729C165.283 21.6831 167.516 21.572 167.537 21.572V11.9698H157.532V21.572C157.553 21.572 159.782 21.6831 159.782 22.8729V43.9161C159.782 44.7994 158.802 45.5114 157.595 45.5114C157.436 45.5114 157.286 45.4994 157.14 45.4754V53.4312L167.531 55.6755V46.0282C167.51 46.0282 167.489 46.0252 167.474 46.0252C166.263 46.0252 165.283 45.3101 165.283 44.4268V43.9611L175.375 29.4947V45.9651C175.375 46.8454 174.398 47.5605 173.188 47.5605C173.032 47.5605 172.876 47.5454 172.732 47.5244V57.2078L183.117 60.3805V48.0742C183.102 48.0742 183.081 48.0712 183.063 48.0712C181.853 48.0712 180.873 47.3562 180.873 46.4759V33.7941L180.876 33.7971Z"
    fill="#4A1900"
  />
  <path
    d="M173.981 56.2854V48.7442C175.513 48.4528 176.624 47.3382 176.624 45.9711V25.5228L164.031 43.5706V44.4298C164.031 45.6797 164.954 46.7162 166.275 47.1098V54.1252L158.386 52.4187V46.6922C159.917 46.4038 161.032 45.2861 161.032 43.9161V22.8729C161.032 21.4548 159.833 20.7848 158.781 20.5024V13.2226H166.284V20.5054C166.197 20.5294 166.107 20.5535 166.017 20.5805C164.226 21.1484 164.031 22.3712 164.031 22.8699V41.4915L176.624 23.4468V22.8729C176.624 21.4548 175.429 20.7878 174.374 20.5024V13.2226H181.88V20.5054C181.793 20.5294 181.703 20.5535 181.61 20.5805C179.818 21.1484 179.626 22.3712 179.626 22.8699V46.4789C179.626 47.7257 180.546 48.7623 181.871 49.1588V58.692L173.981 56.2854Z"
    fill="#4A1C00"
  />
  <path
    d="M209.063 33.7971V22.8729C209.063 21.6831 211.292 21.572 211.316 21.572V11.9698H201.311V21.572C201.332 21.572 203.564 21.6831 203.564 22.8729V23.1193L193.467 37.9582V22.8729C193.467 21.6831 195.696 21.572 195.72 21.572V11.9698H185.716V21.572C185.74 21.572 187.969 21.6831 187.969 22.8729V47.7137C187.969 48.594 186.989 49.3091 185.781 49.3091C185.623 49.3091 185.47 49.297 185.326 49.273V61.4681L195.714 65.491V49.8258C195.696 49.8258 195.675 49.8258 195.657 49.8258C194.447 49.8258 193.467 49.1108 193.467 48.2305V44.7633L203.564 28.8998V50.2795C203.564 51.1598 202.582 51.8719 201.374 51.8719C201.218 51.8719 201.066 51.8628 200.919 51.8388V67.3027L211.307 72.0077V52.3946C211.289 52.3946 211.271 52.3886 211.253 52.3886C210.045 52.3886 209.066 51.6736 209.066 50.7933V33.8031L209.063 33.7971Z"
    fill="#4A1900"
  />
  <path
    d="M202.168 66.4884V53.0495C203.702 52.7611 204.814 51.6464 204.814 50.2764V24.6034L192.221 44.3937V48.2243C192.221 49.4712 193.14 50.5077 194.462 50.9043V63.6612L186.576 60.6087V50.4897C188.107 50.1953 189.215 49.0806 189.215 47.7136V22.8728C189.215 21.4547 188.017 20.7847 186.965 20.5023V13.2225H194.468V20.5053C194.378 20.5263 194.291 20.5534 194.201 20.5804C192.406 21.1482 192.218 22.371 192.218 22.8698V42.0141L204.811 23.5007V22.8668C204.811 21.4487 203.609 20.7787 202.558 20.4963V13.2165H210.06V20.4993C209.974 20.5203 209.884 20.5473 209.791 20.5744C207.999 21.1422 207.807 22.365 207.807 22.8638V50.7781C207.807 52.025 208.73 53.0615 210.051 53.4551V70.0517L202.162 66.4764L202.168 66.4884Z"
    fill="#4A1C00"
  />
  <path
    d="M48.4342 12.0329L47.5563 22.272H48.1196C49.6477 22.26 49.9923 22.7137 49.8245 23.7652L48.2185 34.1606C48.2185 34.1606 45.5428 34.2598 44.6799 34.2568C43.9488 34.2568 43.0379 33.4335 43.0409 31.6759C43.0259 31.5618 42.6754 16.6447 42.6364 14.1029C42.6095 12.0719 41.1263 12.0329 41.1263 12.0329H31.8678L31.9067 22.254C32.6738 22.2239 33.9532 22.263 34.8461 22.239C36.8776 22.1879 37.327 22.8549 37.2641 24.5824V25.0962L37.6147 38.0123C37.6656 44.8084 45.3091 43.1529 45.3091 43.1529L46.8702 42.9907L46.7084 44.0272C46.4207 45.881 46.3968 47.3141 44.0147 47.7377C43.2657 47.8699 38.124 48.597 37.0813 48.5249L36.2933 58.7821L49.402 55.2248C49.402 55.2248 50.9152 54.9394 51.1579 52.9024C51.2987 51.7306 54.235 32.7996 55.4366 23.9575C55.7631 23.0742 56.4643 22.4673 57.3841 22.3201L58.0044 22.2179L58.1002 21.3466L59.3976 12.0298L48.4252 12.0359L48.4342 12.0329Z"
    fill="#4A1900"
  />
  <path
    d="M38.251 49.7327C40.2555 49.5674 43.7312 49.0627 44.2406 48.9725C47.3297 48.4227 47.6384 46.3166 47.8901 44.6251L47.95 44.2225L48.3635 41.5756L45.1185 41.9121L45.0496 41.9241C45.0496 41.9241 44.3335 42.0743 43.3896 42.0743C38.8982 42.0743 38.8772 39.0068 38.8683 37.9973L38.5207 25.0571V24.5764C38.5536 23.7502 38.4937 22.6475 37.7446 21.8664C36.9806 21.0732 35.845 20.9771 35.06 20.9771C34.9821 20.9771 34.9042 20.9771 34.8233 20.9801C34.6015 20.9861 34.3588 20.9861 34.1072 20.9861H33.1603L33.1304 13.2797H41.0645C41.3552 13.3458 41.3941 13.8806 41.3971 14.1119C41.4121 15.1815 41.7447 30.387 41.8016 31.727V31.6699C41.7926 34.1576 43.2818 35.5036 44.684 35.5066C45.6039 35.5066 48.1597 35.4135 48.2706 35.4074L49.3013 35.3684L51.0661 23.9515C51.117 23.63 51.2759 22.6325 50.6197 21.8634C50.1672 21.3316 49.532 21.1273 48.9208 21.0522L49.586 13.2827L57.9725 13.2767L56.8729 21.1423C55.6774 21.4428 54.7186 22.3111 54.2721 23.5128L54.2242 23.645L54.2062 23.7802C53.4152 29.5938 51.8871 39.7068 50.8743 46.3977C50.335 49.967 49.9755 52.3285 49.9275 52.7491C49.7987 53.8217 49.1874 53.984 49.1814 53.984L49.1305 53.996L37.6787 57.1056L38.245 49.7297L38.251 49.7327Z"
    fill="#4A1C00"
  />
  <path
    d="M205.602 2.83614C205.524 2.77004 205.341 2.6769 205.057 2.68892H202.944C202.65 2.70094 202.546 2.97435 202.567 3.25075C202.585 3.38896 202.597 3.63833 202.597 3.77954C202.597 6.23718 199.501 5.96678 198.749 5.99081C198.731 5.99081 198.716 5.99081 198.701 5.99081C198.686 5.99081 198.668 5.99081 198.656 5.99081C197.901 5.96678 194.806 6.23718 194.806 3.77954C194.806 3.63532 194.818 3.38896 194.836 3.25075C194.854 2.97435 194.752 2.70094 194.459 2.68892H192.349C192.062 2.6769 191.882 2.77004 191.804 2.83614C191.48 3.11856 191.501 3.8216 191.522 4.86715C191.573 7.95572 192.958 10.4735 197.949 10.4735H199.459C204.448 10.4735 205.839 7.95272 205.883 4.86715C205.901 3.8246 205.922 3.12156 205.602 2.83614Z"
    fill="#4A1900"
  />
  <path
    d="M197.947 9.21765C193.449 9.21765 192.805 7.00637 192.769 4.84317V4.77106C192.763 4.49766 192.757 4.1882 192.763 3.94183H193.557C193.611 5.29384 194.336 6.32136 195.615 6.84113C196.499 7.19866 197.467 7.24673 198.207 7.24673H199.19C203.076 7.24673 203.789 5.24877 203.84 3.94484H204.634C204.64 4.18519 204.634 4.49165 204.634 4.75904L204.628 4.84617C204.595 7.00938 203.951 9.22065 199.454 9.22065H197.944L197.947 9.21765Z"
    fill="#602C1A"
  />
  <path
    d="M126.842 34.0163L121.677 33.9833C122.255 34.7344 122.591 35.4495 122.591 36.7204C122.591 39.2351 121.29 41.0708 118.489 41.182C118.27 41.2 118.042 41.209 117.8 41.209C115.217 41.209 112.976 39.9591 112.092 36.9998C111.966 36.5821 111.852 35.134 111.873 34.1425V24.4291C111.873 24.4291 111.879 24.7717 111.882 24.7596C111.873 21.7462 114.345 20.0487 116.655 20.0487C119.238 20.0487 120.961 21.8874 120.961 23.7171C120.961 24.6515 121.027 25.8232 120.619 27.695C120.526 28.1126 120.475 28.1817 120.475 28.1817L126.093 28.1637L128.598 11.9156H123.535C122.809 14.202 118.821 12.2341 118.821 12.2341C118.672 12.171 118.471 12.1079 118.249 12.0448C117.47 11.7864 116.529 11.6362 115.517 11.6362C114.198 11.6362 113.003 11.8946 112.128 12.3092C111.376 12.6307 110.642 13.1054 109.812 13.8174C107.729 15.6081 106.683 18.4743 106.683 21.3916L106.719 39.175C106.719 39.175 106.74 40.4699 107.052 41.6777C108.541 46.6471 112.194 49.1317 118.003 49.1317C121.719 49.1317 124.574 48.0441 126.57 45.8629C128.017 44.2675 128.272 42.6271 128.272 40.8815C128.535 36.2727 127.406 34.7404 126.845 34.0073"
    fill="#4A1900"
  />
  <path
    d="M117.999 47.888C112.759 47.888 109.568 45.7429 108.244 41.3263C107.989 40.3318 107.968 39.1751 107.968 39.1631L107.932 21.4008C107.932 18.6637 108.915 16.2482 110.623 14.779C111.348 14.1541 111.98 13.7395 112.612 13.4721C113.397 13.0995 114.44 12.9012 115.512 12.9012C116.363 12.9012 117.169 13.0184 117.853 13.2467L117.91 13.2678C118.062 13.3098 118.203 13.3519 118.311 13.3939C118.641 13.5532 120.256 14.2863 121.769 14.2863C122.859 14.2863 123.734 13.8957 124.277 13.1806H127.138L125.02 26.926L122.029 26.932C122.221 25.6942 122.215 24.7718 122.209 24.0567V23.7232C122.209 21.3557 120.085 18.802 116.651 18.802C115.015 18.802 113.43 19.4569 112.294 20.5986C111.572 21.3257 111.075 22.2 110.823 23.1794H110.617V34.1457C110.599 35.035 110.694 36.7055 110.889 37.3634C111.86 40.6052 114.377 42.465 117.799 42.465C118.074 42.465 118.335 42.453 118.584 42.435C121.805 42.3058 123.836 40.1155 123.836 36.7235C123.836 36.1587 123.776 35.6749 123.677 35.2513L126.191 35.2663C126.656 36.0385 127.21 37.5107 127.018 40.8186V40.8907C127.018 42.5101 126.787 43.7689 125.643 45.0278C123.881 46.9506 121.382 47.888 117.999 47.888Z"
    fill="#4A1C00"
  />
  <path
    d="M4.04211 28.5693V14.16C4.04211 14.16 4.04211 13.499 4.72826 13.499H25.7262C25.7262 13.499 26.715 13.3217 27.1105 14.1089C27.1105 14.1089 27.2663 14.6647 22.0707 14.2621C16.8722 13.8565 6.69982 13.7033 5.83389 13.8054C4.96797 13.9076 4.80916 15.0223 4.73126 17.2546C4.65036 19.4869 4.44062 27.8092 4.33575 28.1637C4.23088 28.5182 4.04511 28.5693 4.04511 28.5693"
    fill="white"
  />
  <path
    d="M39.5274 13.4028C35.7371 13.4209 34.0622 13.3398 33.7985 13.3398C33.1154 13.3398 33.1154 14.0007 33.1154 14.0007V20.2951H33.1423C33.439 20.2229 33.6397 19.1083 33.7656 18.0748C33.7775 17.6842 33.7895 17.3477 33.7985 17.0953C33.8764 14.863 34.0352 14.175 34.9011 14.0758C35.2637 14.0308 35.7221 13.9046 37.46 13.8595C37.7566 13.8535 38.9371 13.6702 39.2967 13.5441C39.4285 13.499 39.7971 13.4028 39.5244 13.4028"
    fill="white"
  />
  <path
    d="M138.805 13.2797C135.018 13.2947 133.34 13.2226 133.076 13.2226C132.393 13.2226 132.393 13.8295 132.393 13.8295V19.6041H132.42C132.717 19.538 132.921 18.5165 133.044 17.5671C133.055 17.2125 133.067 16.9061 133.076 16.6717C133.151 14.6227 133.313 13.9918 134.176 13.8956C134.542 13.8566 135 13.7394 136.738 13.6973C137.035 13.6913 138.215 13.5261 138.575 13.4119C138.706 13.3698 139.075 13.2827 138.805 13.2827"
    fill="white"
  />
  <path
    d="M165.305 13.2797C161.515 13.2947 159.84 13.2226 159.579 13.2226C158.896 13.2226 158.896 13.8295 158.896 13.8295V19.6041H158.923C159.22 19.538 159.421 18.5165 159.546 17.5671C159.558 17.2125 159.567 16.9061 159.579 16.6717C159.654 14.6227 159.813 13.9918 160.679 13.8956C161.042 13.8566 161.5 13.7394 163.238 13.6973C163.534 13.6913 164.715 13.5261 165.075 13.4119C165.206 13.3698 165.578 13.2827 165.305 13.2827"
    fill="white"
  />
  <path
    d="M180.865 13.3999C177.077 13.4179 175.403 13.3428 175.139 13.3428C174.456 13.3428 174.456 13.9497 174.456 13.9497V19.7272H174.483C174.779 19.6581 174.983 18.6396 175.106 17.6872C175.118 17.3297 175.13 17.0202 175.136 16.7889C175.217 14.7368 175.373 14.1059 176.238 14.0128C176.604 13.9737 177.059 13.8565 178.8 13.8145C179.097 13.8085 180.277 13.6432 180.637 13.5291C180.769 13.484 181.137 13.3999 180.865 13.3999Z"
    fill="white"
  />
  <path
    d="M193.533 13.3999C189.745 13.4179 188.067 13.3428 187.807 13.3428C187.127 13.3428 187.124 13.9497 187.124 13.9497V20.4633H187.151C187.447 20.3942 187.651 19.3757 187.777 18.4233C187.789 18.0658 187.798 17.0232 187.81 16.7919C187.888 14.7398 188.047 14.1089 188.912 14.0158C189.275 13.9767 189.733 13.8595 191.474 13.8175C191.771 13.8115 192.951 13.6462 193.311 13.5321C193.443 13.487 193.811 13.4029 193.539 13.4029"
    fill="white"
  />
  <path
    d="M209.159 13.3999C205.369 13.4179 203.694 13.3428 203.433 13.3428C202.75 13.3428 202.75 13.9497 202.75 13.9497V20.4633H202.777C203.073 20.3942 203.277 19.3757 203.4 18.4233C203.412 18.0658 203.424 17.0232 203.433 16.7919C203.511 14.7398 203.667 14.1089 204.536 14.0158C204.901 13.9767 205.357 13.8595 207.094 13.8175C207.391 13.8115 208.572 13.6462 208.931 13.5321C209.06 13.487 209.431 13.4029 209.159 13.4029"
    fill="white"
  />
  <path
    d="M152.571 13.2797C148.78 13.2947 147.106 13.2226 146.845 13.2226C146.162 13.2226 146.162 13.8295 146.162 13.8295V19.6041H146.189C146.485 19.538 146.686 18.5165 146.812 17.5671C146.824 17.2125 146.833 16.9061 146.845 16.6717C146.92 14.6227 147.079 13.9918 147.944 13.8956C148.307 13.8566 148.768 13.7394 150.506 13.6973C150.803 13.6913 151.98 13.5261 152.34 13.4119C152.472 13.3698 152.843 13.2827 152.571 13.2827"
    fill="white"
  />
  <path
    d="M56.102 13.4028C52.3117 13.4209 50.6488 13.3398 50.3851 13.3398C49.7019 13.3398 49.609 14.0007 49.609 14.0007L48.9648 20.2951H48.9888C49.2974 20.2229 49.4173 19.1083 49.6899 18.0748C49.7559 17.6842 49.8128 17.3477 49.8577 17.0953C50.2473 14.863 50.5019 14.175 51.3828 14.0758C51.7544 14.0308 52.2308 13.9046 53.9716 13.8595C54.2713 13.8535 55.4758 13.6702 55.8503 13.5441C55.9881 13.499 56.3717 13.4028 56.099 13.4028"
    fill="white"
  />
  <path
    d="M77.7298 13.4148L72.2615 13.4058C72.2615 13.4058 65.7986 12.9611 65.1334 19.9765C65.1274 20.0156 65.1244 20.0546 65.1184 20.0937C65.9753 16.8278 68.0158 14.0187 71.89 14.0187H72.4114C73.6878 14.0187 77.7268 13.4178 77.7268 13.4178"
    fill="white"
  />
  <path
    d="M85.7383 20.3942C85.6934 19.7993 85.6814 19.2044 85.6544 18.6095C85.6395 18.0147 85.6335 17.4198 85.6245 16.8219C85.6035 15.6321 85.6305 14.4424 85.6544 13.2526L85.6604 12.9882L85.9301 12.9792C87.2065 12.9522 88.4829 12.9371 89.7623 12.9552L91.677 12.9912C92.3152 13.0243 92.9534 13.0393 93.5946 13.0934C92.9594 13.1745 92.3212 13.2166 91.683 13.2766L89.7713 13.3998C88.4979 13.4749 87.2185 13.514 85.9421 13.541L86.2177 13.2676C86.1758 14.4544 86.1339 15.6441 86.047 16.8309C86.005 17.4258 85.9661 18.0177 85.9211 18.6125C85.8612 19.2044 85.8162 19.7993 85.7383 20.3912"
    fill="white"
  />
  <path
    d="M107.92 21.4007C107.92 21.4007 107.905 21.1363 107.938 20.6736C107.98 20.214 108.04 19.55 108.25 18.7748C108.46 18.0027 108.771 17.1104 109.311 16.2451C109.589 15.8245 109.895 15.3858 110.281 15.0133C110.662 14.6347 111.09 14.2832 111.564 14.0038C112.031 13.7153 112.544 13.52 113.056 13.3518C113.571 13.2076 114.093 13.1175 114.596 13.0784C115.102 13.0303 115.588 13.0604 116.046 13.0874C116.505 13.1475 116.933 13.1866 117.323 13.2797C117.715 13.3488 118.066 13.4479 118.374 13.5441C118.686 13.6312 118.953 13.7213 119.168 13.8025C119.597 13.9647 119.845 14.0608 119.845 14.0608C119.845 14.0608 119.591 14.0038 119.138 13.9076C118.917 13.8505 118.644 13.7965 118.329 13.7484C118.018 13.6913 117.664 13.6372 117.278 13.5922C116.891 13.5321 116.472 13.5231 116.031 13.496C115.591 13.502 115.123 13.517 114.65 13.5711C114.177 13.6222 113.697 13.7364 113.221 13.8686C112.753 14.0338 112.283 14.2171 111.857 14.4875C110.985 14.9892 110.275 15.7343 109.73 16.5155C109.197 17.3057 108.807 18.1289 108.555 18.865C108.301 19.6011 108.133 20.232 108.049 20.6857C107.959 21.1333 107.923 21.3977 107.923 21.3977"
    fill="white"
  />
  <path
    d="M121.943 14.5444C122.168 14.4693 122.384 14.4032 122.593 14.3131C122.695 14.271 122.8 14.2379 122.899 14.1839C122.998 14.1328 123.1 14.0967 123.193 14.0427C123.285 13.9886 123.375 13.9315 123.471 13.8804C123.564 13.8323 123.642 13.7572 123.726 13.6971C123.807 13.6371 123.894 13.577 123.96 13.4988L124.172 13.2825L124.202 13.2525C124.256 13.2134 124.331 13.1684 124.379 13.1563L124.493 13.1263C124.568 13.1113 124.628 13.1053 124.697 13.0932C124.823 13.0812 124.945 13.0692 125.071 13.0632C125.317 13.0632 125.563 13.0572 125.805 13.0782C126.291 13.1053 126.773 13.1714 127.25 13.2975C126.767 13.4117 126.291 13.4748 125.817 13.5259L125.113 13.604C124.996 13.613 124.882 13.628 124.775 13.6431C124.724 13.6521 124.664 13.6611 124.625 13.6731L124.568 13.6911C124.568 13.6911 124.583 13.6851 124.583 13.6731L124.61 13.6431C124.421 13.8083 124.256 14.0186 124.029 14.1298C123.921 14.1929 123.819 14.265 123.702 14.3131C123.588 14.3611 123.474 14.4002 123.36 14.4422C123.127 14.5083 122.893 14.5594 122.653 14.5744C122.42 14.5955 122.177 14.5865 121.946 14.5414"
    fill="white"
  />
  <path
    d="M192.871 5.68126C192.805 5.47696 192.757 5.26965 192.718 5.05633C192.685 4.84602 192.655 4.6267 192.67 4.40136L192.688 4.23011L192.751 4.05285L192.769 4.00778C192.805 3.9537 192.79 3.97473 192.805 3.9537L192.856 3.89361C192.874 3.85455 192.957 3.80348 193.032 3.77043C193.113 3.72837 193.176 3.74339 193.251 3.73438C193.314 3.74339 193.383 3.7524 193.443 3.77043C193.566 3.80949 193.668 3.86056 193.775 3.93567L193.829 3.97173L193.838 4.06787C193.865 4.33527 193.937 4.6267 194.039 4.89409C194.147 5.15848 194.285 5.41386 194.459 5.63619C194.537 5.75937 194.647 5.84951 194.74 5.96067C194.833 6.06883 194.956 6.14995 195.061 6.24609C195.163 6.34524 195.298 6.40834 195.417 6.48946C195.537 6.57358 195.666 6.63367 195.801 6.69075C195.936 6.74784 196.059 6.82896 196.202 6.86802L196.622 7.00622C196.76 7.0603 196.913 7.07532 197.053 7.11438C197.2 7.14443 197.344 7.18348 197.494 7.20752L197.94 7.25859C198.09 7.27061 198.24 7.30967 198.39 7.31267C198.692 7.3277 198.995 7.34272 199.304 7.36976C199.001 7.41483 198.695 7.43886 198.387 7.47191C198.081 7.49595 197.773 7.47191 197.461 7.47191C197.308 7.4629 197.155 7.43586 196.999 7.41783C196.847 7.3938 196.688 7.39079 196.538 7.34572L196.08 7.22254C195.927 7.18949 195.786 7.10837 195.636 7.05429C195.486 6.99721 195.343 6.93111 195.211 6.84098C195.076 6.75084 194.926 6.68775 194.806 6.57658C194.686 6.47143 194.546 6.3813 194.441 6.25811C194.339 6.13493 194.213 6.02677 194.129 5.88857C193.934 5.62718 193.781 5.33575 193.677 5.02929C193.575 4.71983 193.503 4.41338 193.506 4.06486L193.569 4.19706C193.506 4.14598 193.422 4.0919 193.344 4.05886C193.305 4.04383 193.266 4.03482 193.227 4.02581C193.2 4.02881 193.149 4.01679 193.131 4.02881C193.113 4.04083 193.086 4.01679 193.044 4.07388L192.987 4.13096C192.987 4.13096 192.952 4.16702 192.978 4.13998L192.966 4.16702L192.91 4.28719L192.88 4.43141C192.799 4.82799 192.841 5.26364 192.871 5.68426"
    fill="white"
  />
  <path
    d="M165.46 63.6343C148.867 58.2413 128.804 54.6089 107.177 54.5819C85.5496 54.6089 65.4865 58.2413 48.8961 63.6343C49.3605 63.9017 55.0115 67.474 58.0078 71.2265C60.4708 74.3151 61.4445 81 61.4445 81C74.9009 77.5118 88.0336 74.0838 103.59 73.588C103.683 73.582 103.779 73.579 103.872 73.576C104.468 73.558 105.07 73.552 105.673 73.543C106.095 73.537 106.515 73.5189 106.937 73.5189C107.018 73.5189 107.099 73.5219 107.18 73.5219C107.261 73.5219 107.342 73.5189 107.422 73.5189C107.845 73.5189 108.264 73.5339 108.687 73.543C109.289 73.552 109.894 73.558 110.488 73.576C110.581 73.579 110.676 73.582 110.769 73.588C126.323 74.0838 139.459 77.5088 152.912 81C152.912 81 152.894 74.9701 155.522 71.2145C158.653 66.7409 162.779 65.5451 165.478 63.6133C165.437 63.6133 164.999 63.9017 165.46 63.6343Z"
    fill="white"
  />
  <path
    d="M157.086 63.4931C154.958 62.9583 152.861 62.4565 150.779 61.9879C139.564 59.1156 128.534 57.5923 116.606 57.0786C113.163 56.8863 109.73 56.7841 106.284 56.7781C88.9144 56.8022 73.5405 58.716 57.7891 63.2467C57.3276 63.3609 56.8692 63.469 56.4048 63.5862C56.3029 63.6283 56.189 63.6824 56.0722 63.7455C55.9823 63.7725 55.8954 63.7965 55.8055 63.8236C55.8265 63.8356 55.8535 63.8536 55.8744 63.8656C55.2961 64.2532 54.8557 64.9262 55.9673 65.9507C57.9029 67.7384 60.3239 68.0208 61.7771 70.5505C63.2063 73.0412 62.2415 74.3932 62.4063 75.4087C62.5292 75.7452 62.643 76.0667 62.7479 76.3672C63.1404 76.95 63.9494 77.2835 65.8011 76.8088C65.9869 76.7607 66.1577 76.7367 66.3195 76.7277C74.0529 74.7748 90.4036 71.0282 107.165 71.0282C109.481 71.0282 111.797 71.0793 114.134 71.1875C127.989 72.0648 140.636 74.9881 147.156 76.6315C147.318 76.6436 147.489 76.6676 147.675 76.7127C149.526 77.1844 150.335 76.8539 150.728 76.271C150.833 75.9706 150.946 75.6461 151.069 75.3126C151.234 74.2971 150.269 72.9451 151.699 70.4544C153.152 67.9246 155.573 67.6422 157.508 65.8546C158.959 64.5146 157.766 63.7785 157.074 63.4901"
    fill="#4A1900"
  />
  <path
    d="M64.2885 76.1748C63.8001 76.1748 63.6113 76.0547 63.5244 75.9585C63.4435 75.7242 63.3536 75.4748 63.2578 75.2164C63.2458 75.0482 63.2817 74.8048 63.3237 74.5314C63.4675 73.579 63.6862 72.1399 62.5297 70.1239C61.5229 68.3753 60.1356 67.5911 58.7903 66.828C57.9903 66.3773 57.2352 65.9477 56.5551 65.3228C56.1745 64.9682 56.1476 64.791 56.1476 64.779C56.1476 64.779 56.1865 64.7038 56.3603 64.5867L56.4053 64.5566H56.4083L56.4922 64.5056C56.5581 64.4695 56.621 64.4395 56.6839 64.4094L57.5349 64.2021L57.9993 64.0879C73.2024 59.7135 88.5374 57.6674 106.29 57.6404C109.619 57.6464 113.077 57.7455 116.562 57.9378C128.825 58.4666 139.627 60.0199 150.566 62.8231C152.691 63.3008 154.779 63.8025 156.811 64.3133C157.209 64.4845 157.335 64.6498 157.347 64.6858C157.344 64.6858 157.32 64.8661 156.937 65.2206C156.256 65.8485 155.501 66.2752 154.701 66.7288C153.359 67.489 151.972 68.2731 150.965 70.0247C149.808 72.0407 150.027 73.4798 150.168 74.4323C150.213 74.7057 150.246 74.943 150.237 75.1113C150.141 75.3696 150.054 75.622 149.97 75.8594C149.883 75.9555 149.694 76.0757 149.206 76.0757C148.853 76.0757 148.415 76.0096 147.897 75.8774C147.693 75.8233 147.501 75.7933 147.306 75.7752C135.492 72.8008 124.355 70.9651 114.198 70.3222C111.854 70.214 109.499 70.1599 107.174 70.1599C95.0004 70.1599 81.2115 72.0828 66.1851 75.8684C65.9844 75.8864 65.7896 75.9164 65.5919 75.9705C65.0795 76.0997 64.639 76.1658 64.2855 76.1658"
    fill="#602C1A"
  />
  <path
    d="M85.4355 61.3538L85.5793 62.2101L85.4055 62.2641C85.2827 62.2972 85.022 62.4234 85.0939 62.853L85.9868 68.1469C86.0587 68.5735 86.3434 68.6095 86.4722 68.6005L86.655 68.5945L86.7988 69.4508L83.1943 70.0637L83.0504 69.2074L83.2242 69.1533C83.3471 69.1203 83.6077 68.9941 83.5358 68.5645L82.6459 63.2826L80.5485 63.6372L81.4384 68.919C81.5103 69.3456 81.798 69.3817 81.9238 69.3727L82.1066 69.3667L82.2504 70.2229L78.6459 70.8358L78.5021 69.9796L78.6759 69.9255C78.7987 69.8924 79.0594 69.7662 78.9875 69.3366L78.0946 64.0428C78.0227 63.6161 77.735 63.5801 77.6092 63.5891L77.4264 63.5951L77.2826 62.7388L85.4385 61.3538H85.4355Z"
    fill="#4A1900"
  />
  <path
    d="M85.4355 61.3538L85.5793 62.2101L85.4055 62.2641C85.2827 62.2972 85.022 62.4234 85.0939 62.853L85.9868 68.1469C86.0587 68.5735 86.3434 68.6095 86.4722 68.6005L86.655 68.5945L86.7988 69.4508L83.1943 70.0637L83.0504 69.2074L83.2242 69.1533C83.3471 69.1203 83.6077 68.9941 83.5358 68.5645L82.6459 63.2826L80.5485 63.6372L81.4384 68.919C81.5103 69.3456 81.798 69.3817 81.9238 69.3727L82.1066 69.3667L82.2504 70.2229L78.6459 70.8358L78.5021 69.9796L78.6759 69.9255C78.7987 69.8924 79.0594 69.7662 78.9875 69.3366L78.0946 64.0428C78.0227 63.6161 77.735 63.5801 77.6092 63.5891L77.4264 63.5951L77.2826 62.7388L85.4385 61.3538H85.4355Z"
    stroke="#4A1900"
    stroke-width="3"
    stroke-linejoin="round"
  />
  <path
    d="M91.0752 65.1846L91.1292 65.1786C91.9322 65.0975 92.6633 64.1961 92.5644 63.2287C92.4595 62.1891 91.6655 62.072 91.1172 62.1291C90.9793 62.1441 90.8655 62.1651 90.7696 62.1891L91.0752 65.1876V65.1846ZM92.04 60.6178C93.9636 60.4195 94.9494 61.4981 95.0843 62.8051C95.279 64.7069 93.4992 66.2091 91.2131 66.5276L91.3149 67.519C91.3599 67.9517 91.6415 68.0028 91.7704 68.0028L91.9531 68.0088L92.043 68.871L88.4055 69.2436L88.3187 68.3813L88.4954 68.3393C88.6213 68.3152 88.8879 68.2041 88.843 67.7744L88.2977 62.4325C88.2527 61.9999 87.9711 61.9488 87.8422 61.9488L87.6595 61.9428L87.5696 61.0805L92.043 60.6208L92.04 60.6178Z"
    fill="#4A1900"
  />
  <path
    d="M91.0752 65.1846L91.1292 65.1786C91.9322 65.0975 92.6633 64.1961 92.5644 63.2287C92.4595 62.1891 91.6655 62.072 91.1172 62.1291C90.9793 62.1441 90.8655 62.1651 90.7696 62.1891L91.0752 65.1876V65.1846ZM92.04 60.6178C93.9636 60.4195 94.9494 61.4981 95.0843 62.8051C95.279 64.7069 93.4992 66.2091 91.2131 66.5276L91.3149 67.519C91.3599 67.9517 91.6415 68.0028 91.7704 68.0028L91.9531 68.0088L92.043 68.871L88.4055 69.2436L88.3187 68.3813L88.4954 68.3393C88.6213 68.3152 88.8879 68.2041 88.843 67.7744L88.2977 62.4325C88.2527 61.9999 87.9711 61.9488 87.8422 61.9488L87.6595 61.9428L87.5696 61.0805L92.043 60.6208L92.04 60.6178Z"
    stroke="#4A1900"
    stroke-width="3"
    stroke-linejoin="round"
  />
  <path
    d="M101.031 61.453C100.097 61.4891 99.8449 62.12 99.8659 62.7059C99.8958 63.5261 100.534 63.8205 101.118 63.7965L101.691 63.7754L101.604 61.432L101.031 61.453ZM104.654 60.756L104.474 60.786C104.348 60.801 104.073 60.8942 104.091 61.3268L104.288 66.6928C104.306 67.1254 104.585 67.1975 104.711 67.2035L104.894 67.2215L104.927 68.0898L101.421 68.219L101.388 67.3507L101.484 67.3357C101.822 67.2756 101.807 66.867 101.801 66.7619L101.745 65.2025L101.001 65.2296L99.752 68.2791L97.0643 68.3813L97.0314 67.513C97.4419 67.4258 97.6426 67.1044 97.7235 66.9602L98.8651 64.7699C97.9722 64.5205 97.4029 63.7454 97.361 62.6307C97.298 60.9663 98.5115 60.113 99.8509 60.0619L104.621 59.8847L104.654 60.753V60.756Z"
    fill="#4A1900"
  />
  <path
    d="M101.031 61.453C100.097 61.4891 99.8449 62.12 99.8659 62.7059C99.8958 63.5261 100.534 63.8205 101.118 63.7965L101.691 63.7754L101.604 61.432L101.031 61.453V61.453ZM104.654 60.756L104.474 60.786C104.348 60.801 104.073 60.8942 104.091 61.3268L104.288 66.6928C104.306 67.1254 104.585 67.1975 104.711 67.2035L104.894 67.2215L104.927 68.0898L101.421 68.219L101.388 67.3507L101.484 67.3357C101.822 67.2756 101.807 66.867 101.801 66.7619L101.745 65.2025L101.001 65.2296L99.752 68.2791L97.0643 68.3813L97.0314 67.513C97.4419 67.4258 97.6426 67.1044 97.7235 66.9602L98.8651 64.7699C97.9722 64.5205 97.4029 63.7454 97.361 62.6307C97.298 60.9663 98.5115 60.113 99.8509 60.0619L104.621 59.8847L104.654 60.753V60.756Z"
    stroke="#4A1900"
    stroke-width="3"
    stroke-linejoin="round"
  />
  <path
    d="M110.186 59.9958L110.159 60.8641L109.979 60.8822C109.85 60.8912 109.571 60.9633 109.559 61.3989L109.508 63.1205L111.633 63.1836L111.684 61.462C111.696 61.0294 111.423 60.9392 111.294 60.9242L111.114 60.8942L111.138 60.0259L114.791 60.131L114.767 60.9993L114.587 61.0174C114.458 61.0264 114.183 61.0985 114.168 61.5341L114.012 66.9001C114 67.3327 114.272 67.4228 114.401 67.4379L114.581 67.4649L114.557 68.3332L110.905 68.228L110.929 67.3597L111.108 67.3417C111.237 67.3327 111.516 67.2606 111.528 66.825L111.591 64.6107L109.466 64.5476L109.404 66.7619C109.392 67.1945 109.664 67.2846 109.793 67.2997L109.973 67.3297L109.949 68.198L106.296 68.0928L106.32 67.2245L106.503 67.2065C106.632 67.1975 106.911 67.1254 106.923 66.6898L107.078 61.3238C107.09 60.8912 106.818 60.801 106.689 60.786L106.509 60.759L106.533 59.8907L110.186 59.9958Z"
    fill="#4A1900"
  />
  <path
    d="M110.186 59.9958L110.159 60.8641L109.979 60.8822C109.85 60.8912 109.571 60.9633 109.559 61.3989L109.508 63.1205L111.633 63.1836L111.684 61.462C111.696 61.0294 111.423 60.9392 111.294 60.9242L111.114 60.8942L111.138 60.0259L114.791 60.131L114.767 60.9993L114.587 61.0174C114.458 61.0264 114.183 61.0985 114.168 61.5341L114.012 66.9001C114 67.3327 114.272 67.4228 114.401 67.4379L114.581 67.4649L114.557 68.3332L110.905 68.228L110.929 67.3597L111.108 67.3417C111.237 67.3327 111.516 67.2606 111.528 66.825L111.591 64.6107L109.466 64.5476L109.404 66.7619C109.392 67.1945 109.664 67.2846 109.793 67.2997L109.973 67.3297L109.949 68.198L106.296 68.0928L106.32 67.2245L106.503 67.2065C106.632 67.1975 106.911 67.1254 106.923 66.6898L107.078 61.3238C107.09 60.8912 106.818 60.801 106.689 60.786L106.509 60.759L106.533 59.8907L110.186 59.9958V59.9958Z"
    stroke="#4A1900"
    stroke-width="3"
    stroke-linejoin="round"
  />
  <path
    d="M120.588 60.6058L120.507 61.471L120.325 61.4771C120.196 61.4771 119.914 61.5311 119.872 61.9638L119.615 64.7189L121.91 63.0063L121.988 62.1651C122.03 61.7324 121.76 61.6243 121.634 61.6002L121.457 61.5612L121.538 60.6959L125.179 61.0414L125.098 61.9067L124.915 61.9127C124.786 61.9127 124.504 61.9668 124.463 62.3994L123.959 67.7443C123.917 68.177 124.187 68.2821 124.313 68.3062L124.489 68.3452L124.409 69.2105L120.768 68.868L120.849 68.0027L121.032 67.9967C121.161 67.9967 121.442 67.9426 121.484 67.51L121.736 64.8481L119.441 66.5606L119.372 67.3087C119.33 67.7413 119.6 67.8495 119.725 67.8735L119.902 67.9126L119.821 68.7779L116.181 68.4324L116.262 67.5701L116.444 67.5641C116.573 67.5641 116.855 67.51 116.897 67.0774L117.4 61.7324C117.439 61.2998 117.173 61.1916 117.047 61.1706L116.87 61.1315L116.951 60.2663L120.591 60.6088L120.588 60.6058Z"
    fill="#4A1900"
  />
  <path
    d="M120.588 60.6058L120.507 61.471L120.325 61.4771C120.196 61.4771 119.914 61.5311 119.872 61.9638L119.615 64.7189L121.91 63.0063L121.988 62.1651C122.03 61.7324 121.76 61.6243 121.634 61.6002L121.457 61.5612L121.538 60.6959L125.179 61.0414L125.098 61.9067L124.915 61.9127C124.786 61.9127 124.504 61.9668 124.463 62.3994L123.959 67.7443C123.917 68.177 124.187 68.2821 124.313 68.3062L124.489 68.3452L124.409 69.2105L120.768 68.868L120.849 68.0027L121.032 67.9967C121.161 67.9967 121.442 67.9426 121.484 67.51L121.736 64.8481L119.441 66.5606L119.372 67.3087C119.33 67.7413 119.6 67.8495 119.725 67.8735L119.902 67.9126L119.821 68.7779L116.181 68.4324L116.262 67.5701L116.444 67.5641C116.573 67.5641 116.855 67.51 116.897 67.0774L117.4 61.7324C117.439 61.2998 117.173 61.1916 117.047 61.1706L116.87 61.1315L116.951 60.2663L120.591 60.6088L120.588 60.6058Z"
    stroke="#4A1900"
    stroke-width="3"
    stroke-linejoin="round"
  />
  <path
    d="M130.949 61.9158L130.805 62.7721L130.623 62.7661C130.494 62.757 130.209 62.7931 130.137 63.2197L129.835 65.0344C130.152 65.0645 130.742 65.0795 131.294 64.8752C131.95 64.6288 132.42 64.1241 132.501 63.6404C132.588 63.1086 132.166 63.0034 131.965 62.9704L132.106 62.1141L135.144 62.6218L135.108 62.8412C134.826 64.5417 134.257 65.6924 133.008 66.1491L133.688 68.6638C133.936 69.5741 134.29 69.8445 134.611 69.9827L134.47 70.827L131.557 70.3403L130.596 66.5907C130.38 66.5907 130.158 66.5757 129.924 66.5396C129.82 66.5216 129.706 66.5036 129.592 66.4705L129.25 68.5166C129.178 68.9432 129.439 69.0724 129.562 69.1024L129.736 69.1565L129.595 70.0128L125.99 69.4089L126.134 68.5526L126.317 68.5586C126.446 68.5676 126.73 68.5316 126.802 68.105L127.683 62.8081C127.755 62.3815 127.494 62.2523 127.372 62.2223L127.198 62.1682L127.339 61.3119L130.943 61.9158H130.949Z"
    fill="#4A1900"
  />
  <path
    d="M130.949 61.9158L130.805 62.7721L130.623 62.7661C130.494 62.757 130.209 62.7931 130.137 63.2197L129.835 65.0344C130.152 65.0645 130.742 65.0795 131.294 64.8752C131.95 64.6288 132.42 64.1241 132.501 63.6404C132.588 63.1086 132.166 63.0034 131.965 62.9704L132.106 62.1141L135.144 62.6218L135.108 62.8412C134.826 64.5417 134.257 65.6924 133.008 66.1491L133.688 68.6638C133.936 69.5741 134.29 69.8445 134.611 69.9827L134.47 70.827L131.557 70.3403L130.596 66.5907C130.38 66.5907 130.158 66.5757 129.924 66.5396C129.82 66.5216 129.706 66.5036 129.592 66.4705L129.25 68.5166C129.178 68.9432 129.439 69.0724 129.562 69.1024L129.736 69.1565L129.595 70.0128L125.99 69.4089L126.134 68.5526L126.317 68.5586C126.446 68.5676 126.73 68.5316 126.802 68.105L127.683 62.8081C127.755 62.3815 127.494 62.2523 127.372 62.2223L127.198 62.1682L127.339 61.3119L130.943 61.9158H130.949Z"
    stroke="#4A1900"
    stroke-width="3"
    stroke-linejoin="round"
  />
  <path
    d="M85.4355 61.3538L85.5793 62.2101L85.4055 62.2641C85.2827 62.2972 85.022 62.4234 85.0939 62.853L85.9868 68.1469C86.0587 68.5735 86.3434 68.6095 86.4722 68.6005L86.655 68.5945L86.7988 69.4508L83.1943 70.0637L83.0504 69.2074L83.2242 69.1533C83.3471 69.1203 83.6077 68.9941 83.5358 68.5645L82.6459 63.2826L80.5485 63.6372L81.4384 68.919C81.5103 69.3456 81.798 69.3817 81.9238 69.3727L82.1066 69.3667L82.2504 70.2229L78.6459 70.8358L78.5021 69.9796L78.6759 69.9255C78.7987 69.8924 79.0594 69.7662 78.9875 69.3366L78.0946 64.0428C78.0227 63.6161 77.735 63.5801 77.6092 63.5891L77.4264 63.5951L77.2826 62.7388L85.4385 61.3538H85.4355Z"
    fill="white"
  />
  <path
    d="M91.0752 65.1846L91.1292 65.1786C91.9322 65.0975 92.6633 64.1961 92.5644 63.2287C92.4595 62.1891 91.6655 62.072 91.1172 62.1291C90.9793 62.1441 90.8655 62.1651 90.7696 62.1891L91.0752 65.1876V65.1846ZM92.04 60.6178C93.9636 60.4195 94.9494 61.4981 95.0843 62.8051C95.279 64.7069 93.4992 66.2091 91.2131 66.5276L91.3149 67.519C91.3599 67.9517 91.6415 68.0028 91.7704 68.0028L91.9531 68.0088L92.043 68.871L88.4055 69.2436L88.3187 68.3813L88.4954 68.3393C88.6213 68.3152 88.8879 68.2041 88.843 67.7744L88.2977 62.4325C88.2527 61.9999 87.9711 61.9488 87.8422 61.9488L87.6595 61.9428L87.5696 61.0805L92.043 60.6208L92.04 60.6178Z"
    fill="white"
  />
  <path
    d="M101.031 61.453C100.097 61.4891 99.8449 62.12 99.8659 62.7059C99.8958 63.5261 100.534 63.8205 101.118 63.7965L101.691 63.7754L101.604 61.432L101.031 61.453ZM104.654 60.756L104.474 60.786C104.348 60.801 104.073 60.8942 104.091 61.3268L104.288 66.6928C104.306 67.1254 104.585 67.1975 104.711 67.2035L104.894 67.2215L104.927 68.0898L101.421 68.219L101.388 67.3507L101.484 67.3357C101.822 67.2756 101.807 66.867 101.801 66.7619L101.745 65.2025L101.001 65.2296L99.752 68.2791L97.0643 68.3813L97.0314 67.513C97.4419 67.4258 97.6426 67.1044 97.7235 66.9602L98.8651 64.7699C97.9722 64.5205 97.4029 63.7454 97.361 62.6307C97.298 60.9663 98.5115 60.113 99.8509 60.0619L104.621 59.8847L104.654 60.753V60.756Z"
    fill="white"
  />
  <path
    d="M110.186 59.9958L110.159 60.8641L109.979 60.8822C109.85 60.8912 109.571 60.9633 109.559 61.3989L109.508 63.1205L111.633 63.1836L111.684 61.462C111.696 61.0294 111.423 60.9392 111.294 60.9242L111.114 60.8942L111.138 60.0259L114.791 60.131L114.767 60.9993L114.587 61.0174C114.458 61.0264 114.183 61.0985 114.168 61.5341L114.012 66.9001C114 67.3327 114.272 67.4228 114.401 67.4379L114.581 67.4649L114.557 68.3332L110.905 68.228L110.929 67.3597L111.108 67.3417C111.237 67.3327 111.516 67.2606 111.528 66.825L111.591 64.6107L109.466 64.5476L109.404 66.7619C109.392 67.1945 109.664 67.2846 109.793 67.2997L109.973 67.3297L109.949 68.198L106.296 68.0928L106.32 67.2245L106.503 67.2065C106.632 67.1975 106.911 67.1254 106.923 66.6898L107.078 61.3238C107.09 60.8912 106.818 60.801 106.689 60.786L106.509 60.759L106.533 59.8907L110.186 59.9958Z"
    fill="white"
  />
  <path
    d="M120.588 60.6058L120.507 61.471L120.325 61.4771C120.196 61.4771 119.914 61.5311 119.872 61.9638L119.615 64.7189L121.91 63.0063L121.988 62.1651C122.03 61.7324 121.76 61.6243 121.634 61.6002L121.457 61.5612L121.538 60.6959L125.179 61.0414L125.098 61.9067L124.915 61.9127C124.786 61.9127 124.504 61.9668 124.463 62.3994L123.959 67.7443C123.917 68.177 124.187 68.2821 124.313 68.3062L124.489 68.3452L124.409 69.2105L120.768 68.868L120.849 68.0027L121.032 67.9967C121.161 67.9967 121.442 67.9426 121.484 67.51L121.736 64.8481L119.441 66.5606L119.372 67.3087C119.33 67.7413 119.6 67.8495 119.725 67.8735L119.902 67.9126L119.821 68.7779L116.181 68.4324L116.262 67.5701L116.444 67.5641C116.573 67.5641 116.855 67.51 116.897 67.0774L117.4 61.7324C117.439 61.2998 117.173 61.1916 117.047 61.1706L116.87 61.1315L116.951 60.2663L120.591 60.6088L120.588 60.6058Z"
    fill="white"
  />
  <path
    d="M130.949 61.9158L130.805 62.7721L130.623 62.7661C130.494 62.757 130.209 62.7931 130.137 63.2197L129.835 65.0344C130.152 65.0645 130.742 65.0795 131.294 64.8752C131.95 64.6288 132.42 64.1241 132.501 63.6404C132.588 63.1086 132.166 63.0034 131.965 62.9704L132.106 62.1141L135.144 62.6218L135.108 62.8412C134.826 64.5417 134.257 65.6924 133.008 66.1491L133.688 68.6638C133.936 69.5741 134.29 69.8445 134.611 69.9827L134.47 70.827L131.557 70.3403L130.596 66.5907C130.38 66.5907 130.158 66.5757 129.924 66.5396C129.82 66.5216 129.706 66.5036 129.592 66.4705L129.25 68.5166C129.178 68.9432 129.439 69.0724 129.562 69.1024L129.736 69.1565L129.595 70.0128L125.99 69.4089L126.134 68.5526L126.317 68.5586C126.446 68.5676 126.73 68.5316 126.802 68.105L127.683 62.8081C127.755 62.3815 127.494 62.2523 127.372 62.2223L127.198 62.1682L127.339 61.3119L130.943 61.9158H130.949Z"
    fill="white"
  />
</svg>
